<svg height="512" viewBox="0 0 200 200" width="512" xmlns="http://www.w3.org/2000/svg" xmlns:xlink="http://www.w3.org/1999/xlink"><linearGradient id="linear-gradient" gradientUnits="userSpaceOnUse" x1="40" x2="80" y1="134.68" y2="65.39"><stop offset="0" stop-color="#838bc5"/><stop offset="1" stop-color="#ba9bc9"/><stop offset="1" stop-color="#f15a24"/><stop offset="1"/></linearGradient><linearGradient id="linear-gradient-2" x1="157.51" x2="172.12" xlink:href="#linear-gradient" y1="129.23" y2="103.92"/><linearGradient id="linear-gradient-3" x1="97.3" x2="139.87" xlink:href="#linear-gradient" y1="161.57" y2="87.83"/><g id="basic_shape" data-name="basic shape"><g id="cloud_test_1" data-name="cloud test 1"><path d="m100 100a40 40 0 1 1 -10.68-27.16 39.83 39.83 0 0 1 10.68 27.16z" fill="url(#linear-gradient)"/><path d="m180 120a19.93 19.93 0 0 1 -9.24 16.85 79.69 79.69 0 0 0 -17.32-35.74 19.77 19.77 0 0 1 6.56-1.11 20 20 0 0 1 20 20z" fill="url(#linear-gradient-2)"/><path d="m170.76 136.88a19.81 19.81 0 0 1 -10.76 3.12h-100a40 40 0 0 0 29.32-67.16c1 0 2-.06 3-.06a80 80 0 0 1 78.42 64.1z" fill="url(#linear-gradient-3)"/></g></g></svg>