<svg height="512" viewBox="0 0 188 120" width="512" xmlns="http://www.w3.org/2000/svg" xmlns:xlink="http://www.w3.org/1999/xlink"><linearGradient id="linearGradient-1" x1="18.131%" x2="87.083%" y1="70.073%" y2="31.89%"><stop offset="0" stop-color="#838bc5"/><stop offset="1" stop-color="#ba9bc9"/><stop offset="1" stop-color="#f15a24"/><stop offset="1"/></linearGradient><g id="icon-change" fill="none" fill-rule="evenodd"><g id="Artboard" fill="url(#linearGradient-1)" fill-rule="nonzero" transform="translate(-118 -203)"><g id="cloud-simple" transform="translate(118 203)"><path id="Path" d="m98.174842.04751941c17.640914.78385726 33.390301 11.18429559 41.061955 27.01469829 17.416676 7.5862372 28.802146 24.8063696 28.821688 43.9544757v.41c11.444065 2.0340917 19.785642 11.9765774 19.8 23.6 0 13.2548336-10.745166 24.0001196-24 24.0001196l-115.4095734-.00032c-7.7741548.075032-15.6336887-1.736418-22.8716372-5.561442-19.50921137-10.309996-29.47614421-32.592792-24.15744468-54.0081316 5.31869954-21.4153396 24.55272908-36.4458041 46.61865508-36.4303577 2.076548-.0033708 4.1510611.1302532 6.21.4001317l.5199377.0720236c9.0202997-15.19921 25.693572-24.23825115 43.4064195-23.45119759z"/></g></g></g></svg>