<svg height="512" viewBox="0 0 200 200" width="512" xmlns="http://www.w3.org/2000/svg" xmlns:xlink="http://www.w3.org/1999/xlink"><linearGradient id="linear-gradient" gradientUnits="userSpaceOnUse" x1="25.74" x2="174.26" y1="98.54" y2="98.54"><stop offset="0" stop-color="#9babe2"/><stop offset="1" stop-color="#d4f2ff"/></linearGradient><linearGradient id="linear-gradient-2" gradientUnits="userSpaceOnUse" x1="109.05" x2="129.06" y1="160.87" y2="126.22"><stop offset="0" stop-color="#838bc5"/><stop offset="1" stop-color="#ba9bc9"/><stop offset="1" stop-color="#f15a24"/><stop offset="1"/></linearGradient><linearGradient id="linear-gradient-3" x1="135.35" x2="145.44" xlink:href="#linear-gradient-2" y1="131.63" y2="114.14"/><linearGradient id="linear-gradient-4" x1="137.75" x2="163.92" xlink:href="#linear-gradient-2" y1="174.34" y2="129.02"/><g id="weather_icon" data-name="weather icon"><path id="moon" d="m174.26 139.85a80 80 0 1 1 -68.52-121.31h1.53a80 80 0 0 0 67 121.29z" fill="url(#linear-gradient)"/><g id="heavy_rain" data-name="heavy rain"><g id="Cloud"><path d="m139.06 143.55a19.83 19.83 0 0 1 -2.59 9.83 19.21 19.21 0 0 1 -2.41 3.38.87.87 0 0 1 -.09.11 20 20 0 1 1 5.09-13.32z" fill="url(#linear-gradient-2)"/><path d="m157.28 125.3a20 20 0 0 0 -23.23 5 20 20 0 0 0 -12.41-6.61 20 20 0 0 1 35.64 1.59z" fill="url(#linear-gradient-3)"/><path d="m177.31 153.55a10 10 0 0 1 -10 10h-48.25a19.92 19.92 0 0 0 14.94-6.68h.19l-.1-.11a19.21 19.21 0 0 0 2.41-3.38 20 20 0 0 0 -2.42-23.06 20 20 0 0 1 35 13.21v.17a10 10 0 0 1 8.23 9.85z" fill="url(#linear-gradient-4)"/></g></g></g></svg>