<svg height="512" viewBox="0 0 200 200" width="512" xmlns="http://www.w3.org/2000/svg" xmlns:xlink="http://www.w3.org/1999/xlink"><linearGradient id="linear-gradient" gradientUnits="userSpaceOnUse" x1="110.89" x2="200" y1="79.88" y2="79.88"><stop offset="0" stop-color="#9babe2"/><stop offset="1" stop-color="#d4f2ff"/></linearGradient><linearGradient id="linear-gradient-2" gradientUnits="userSpaceOnUse" x1="27.31" x2="75.32" y1="161.7" y2="78.55"><stop offset="0" stop-color="#838bc5"/><stop offset="1" stop-color="#ba9bc9"/><stop offset="1" stop-color="#f15a24"/><stop offset="1"/></linearGradient><linearGradient id="linear-gradient-3" x1="90.41" x2="114.65" xlink:href="#linear-gradient-2" y1="91.51" y2="49.54"/><linearGradient id="linear-gradient-4" x1="96.18" x2="158.98" xlink:href="#linear-gradient-2" y1="194.02" y2="85.25"/><g id="weather_icon" data-name="weather icon"><g id="heavy_clouds" data-name="heavy clouds"><g id="heavy_rain" data-name="heavy rain"><path id="moon" d="m200 104.66a48 48 0 1 1 -41.11-72.78h.92a48 48 0 0 0 40.19 72.78z" fill="url(#linear-gradient)"/><g id="Cloud"><path d="m99.32 120.12a47.72 47.72 0 0 1 -6.21 23.61 46.83 46.83 0 0 1 -5.78 8.11 2.61 2.61 0 0 1 -.23.25 48 48 0 1 1 -35.78-80 48.79 48.79 0 0 1 6.2.4 48.07 48.07 0 0 1 41.8 47.6z" fill="url(#linear-gradient-2)"/><path d="m143 76.32a48 48 0 0 0 -55.7 12.06 47.8 47.8 0 0 0 -29.78-15.86 48 48 0 0 1 85.48 3.8z" fill="url(#linear-gradient-3)"/><path d="m191.13 144.12a24 24 0 0 1 -24 24h-115.81a47.79 47.79 0 0 0 35.78-16h.46l-.23-.25a46.83 46.83 0 0 0 5.78-8.11 47.95 47.95 0 0 0 -5.81-55.38 48 48 0 0 1 84 31.71v.41a24 24 0 0 1 19.83 23.62z" fill="url(#linear-gradient-4)"/></g></g></g></g></svg>