<svg height="512" viewBox="0 0 200 200" width="512" xmlns="http://www.w3.org/2000/svg" xmlns:xlink="http://www.w3.org/1999/xlink"><linearGradient id="linear-gradient" gradientUnits="userSpaceOnUse" x1="41.74" x2="81.74" y1="124.82" y2="55.52"><stop offset="0" stop-color="#838bc5"/><stop offset="1" stop-color="#ba9bc9"/><stop offset="1" stop-color="#f15a24"/><stop offset="1"/></linearGradient><linearGradient id="linear-gradient-2" x1="94.33" x2="114.52" xlink:href="#linear-gradient" y1="66.33" y2="31.35"/><linearGradient id="linear-gradient-3" x1="99.13" x2="151.46" xlink:href="#linear-gradient" y1="151.75" y2="61.11"/><linearGradient id="linear-gradient-4" gradientTransform="matrix(.866 -.5 .5 .866 212.86 114.45)" gradientUnits="userSpaceOnUse" x1="-148.75" x2="-101.43" y1="-26.16" y2="-53.48"><stop offset="0" stop-color="#ff0"/><stop offset="1" stop-color="#e9a300"/></linearGradient><linearGradient id="linear-gradient-5" x1="-121.59" x2="-74.27" xlink:href="#linear-gradient-4" y1="-12.8" y2="-40.12"/><linearGradient id="linear-gradient-6" x1="-96.45" x2="-49.13" xlink:href="#linear-gradient-4" y1="4.03" y2="-23.29"/><linearGradient id="linear-gradient-7" x1="-174.89" x2="-127.57" xlink:href="#linear-gradient-4" y1="-41.26" y2="-68.58"/><g id="weather_icon" data-name="weather icon"><g id="thunder_storm" data-name="thunder storm"><g id="Cloud"><path d="m101.74 90.17a39.86 39.86 0 0 1 -5.16 19.67 40.45 40.45 0 0 1 -4.82 6.76l-.19.21a40 40 0 1 1 10.17-26.64z" fill="url(#linear-gradient)"/><path d="m138.18 53.67a40 40 0 0 0 -46.45 10 39.82 39.82 0 0 0 -24.82-13.17 40 40 0 0 1 71.27 3.17z" fill="url(#linear-gradient-2)"/><path d="m178.26 110.17a20 20 0 0 1 -20 20h-96.52a39.85 39.85 0 0 0 29.83-13.36h.37c0-.07-.12-.14-.18-.21a40.45 40.45 0 0 0 4.82-6.76 40 40 0 0 0 -4.85-46.12 40 40 0 0 1 70 26.42v.34a20 20 0 0 1 16.53 19.69z" fill="url(#linear-gradient-3)"/></g><path id="thunder" d="m77.3 169.83.49-29.15 11.16-.67 2.99-24.82-.49 29.15-11.16.67z" fill="url(#linear-gradient-4)"/><path id="thunder-2" d="m107.49 167.82.49-29.15 11.16-.67 2.99-24.82-.49 29.15-11.16.67z" fill="url(#linear-gradient-5)" data-name="thunder"/><path id="thunder-3" d="m137.68 169.83.49-29.15 11.16-.67 2.99-24.82-.49 29.15-11.16.67z" fill="url(#linear-gradient-6)" data-name="thunder"/><path id="thunder-4" d="m47.1 169.83.49-29.15 11.17-.67 2.98-24.82-.48 29.15-11.17.67z" fill="url(#linear-gradient-7)" data-name="thunder"/></g></g></svg>